<svg xmlns="http://www.w3.org/2000/svg" viewBox="0 0 100 100"><defs><style>.cls-1{fill:#1a1b1e;}.cls-2{fill:#ced4da;}</style></defs><g id="Layer_2" data-name="Layer 2"><g id="Layer_2-2" data-name="Layer 2"><rect class="cls-1" width="100" height="100"/><path class="cls-2" d="M79.05,41.4a16.2,16.2,0,0,0-6-6,16.89,16.89,0,0,0-8.63-2.2,16.65,16.65,0,0,0-8.48,2.17A16.19,16.19,0,0,0,50,41.17a15.79,15.79,0,0,0-14-8,15.55,15.55,0,0,0-7.34,1.72,14.57,14.57,0,0,0-5.28,4.56V21.72A2.29,2.29,0,0,0,22.76,20a2.21,2.21,0,0,0-1.66-.64,2.19,2.19,0,0,0-2.35,2.36V50.21A16.91,16.91,0,0,0,21,58.69a16.1,16.1,0,0,0,6,6,16.67,16.67,0,0,0,8.48,2.17,16.87,16.87,0,0,0,8.63-2.2,16.45,16.45,0,0,0,3.59-2.79V78.28A2.19,2.19,0,0,0,50,80.64,2.22,2.22,0,0,0,51.7,80a2.32,2.32,0,0,0,.63-1.72V60.53a14.43,14.43,0,0,0,5.29,4.56A15.51,15.51,0,0,0,65,66.81,15.85,15.85,0,0,0,79.11,58.6,17.22,17.22,0,0,0,81.25,50,17,17,0,0,0,79.05,41.4ZM41.75,60.93a12.6,12.6,0,0,1-12.5,0,11.8,11.8,0,0,1-4.34-4.5,14,14,0,0,1,0-12.89A11.52,11.52,0,0,1,29.25,39a12.8,12.8,0,0,1,12.5,0,11.84,11.84,0,0,1,4.38,4.5,12.77,12.77,0,0,1,1.45,4.35H46.27a2.23,2.23,0,0,0-1.63.66,2.32,2.32,0,0,0-.66,1.7,2.27,2.27,0,0,0,2.29,2.29h1.24a12.27,12.27,0,0,1-1.38,3.89A12.12,12.12,0,0,1,41.75,60.93Zm33.31-4.47A11.74,11.74,0,0,1,70.69,61a12.27,12.27,0,0,1-6.28,1.63A12.11,12.11,0,0,1,58.19,61a11.62,11.62,0,0,1-4.35-4.5,12.85,12.85,0,0,1-1.36-3.92h8a2.28,2.28,0,0,0,1.69-.67,2.2,2.2,0,0,0,.66-1.62,2.26,2.26,0,0,0-2.35-2.36h-8a12.55,12.55,0,0,1,1.41-4.32,11.87,11.87,0,0,1,10.57-6.16,11.93,11.93,0,0,1,10.65,6.16,13.78,13.78,0,0,1,0,12.89Z"/><path class="cls-2" d="M35.68,46.44a3.42,3.42,0,0,0-2.44,1,3.52,3.52,0,0,0,2.44,6,3.33,3.33,0,0,0,2.51-1.06,3.55,3.55,0,0,0,0-5A3.36,3.36,0,0,0,35.68,46.44Z"/></g></g></svg>